<svg width="294" height="251" viewBox="0 0 294 251" fill="none" xmlns="http://www.w3.org/2000/svg">
<g clip-path="url(#clip0_1952_395)">
<path d="M290.042 85.881C290.387 87.2437 290.71 88.6133 291.012 89.9898H188.368V85.881H290.042Z" fill="#E1EDF5"/>
<path d="M286.77 75.0502C285.118 70.3333 283.191 65.7194 281 61.2324C280.326 59.849 279.625 58.4794 278.899 57.1237C278.78 56.891 278.653 56.6584 278.525 56.4257V87.0026H287.395V76.8698L286.77 75.0502Z" fill="#E1EDF5"/>
<path d="M281 61.2326H278.525V57.1238H278.899C279.627 58.4782 280.327 59.8478 281 61.2326Z" fill="#CAD7DF"/>
<path d="M286.77 75.0504H278.525V79.1592H287.395V76.8701L286.77 75.0504Z" fill="#CAD7DF"/>
<path d="M273.722 51.5223H264.854V87.0031H273.722V51.5223Z" fill="#E1EDF5"/>
<path d="M273.722 57.1245H264.854V61.2328H273.722V57.1245Z" fill="#CAD7DF"/>
<path d="M273.722 75.0519H264.854V79.1602H273.722V75.0519Z" fill="#CAD7DF"/>
<path d="M233.28 51.3158H201.467C200.977 51.3165 200.507 51.5137 200.16 51.8642C199.814 52.2146 199.619 52.6897 199.618 53.1853V85.3408C199.618 85.5237 199.645 85.7055 199.696 85.8809C199.811 86.2651 200.046 86.6017 200.365 86.8411C200.684 87.0804 201.07 87.2099 201.467 87.2103H233.28C233.678 87.2099 234.064 87.0805 234.383 86.8411C234.702 86.6017 234.936 86.2651 235.052 85.8809C235.103 85.7056 235.129 85.5237 235.13 85.3408V53.1853C235.129 52.6897 234.934 52.2146 234.587 51.8642C234.241 51.5137 233.771 51.3165 233.28 51.3158Z" fill="#E1EDF5"/>
<path d="M231.02 53.6008H203.728C203.238 53.6016 202.768 53.7988 202.421 54.1492C202.074 54.4997 201.879 54.9747 201.878 55.4703V83.056C201.879 83.5515 202.074 84.0266 202.421 84.3771C202.768 84.7275 203.238 84.9247 203.728 84.9255H231.02C231.51 84.9247 231.98 84.7275 232.327 84.3771C232.673 84.0266 232.869 83.5515 232.869 83.056V55.4703C232.869 54.9747 232.673 54.4997 232.327 54.1492C231.98 53.7988 231.51 53.6016 231.02 53.6008Z" fill="white"/>
<path d="M226.139 57.7012H208.367C207.876 57.7019 207.406 57.8991 207.06 58.2496C206.713 58.6 206.518 59.0751 206.517 59.5707V77.5345C206.518 78.0301 206.713 78.5052 207.06 78.8557C207.406 79.2061 207.876 79.4033 208.367 79.4041H226.139C226.629 79.4015 227.098 79.2037 227.444 78.8537C227.791 78.5036 227.986 78.0296 227.989 77.5345V59.5707C227.988 59.0751 227.793 58.6 227.446 58.2496C227.1 57.8991 226.63 57.7019 226.139 57.7012Z" fill="#A8D9FF"/>
<path d="M225.164 75.0767L221.411 68.5047C221.338 68.3784 221.235 68.2735 221.11 68.2006C220.985 68.1277 220.843 68.0893 220.699 68.0893C220.554 68.0893 220.413 68.1277 220.288 68.2006C220.163 68.2735 220.059 68.3784 219.987 68.5047L217.246 73.3036L213.651 67.0107C213.579 66.8844 213.475 66.7795 213.35 66.7066C213.225 66.6337 213.083 66.5953 212.939 66.5953C212.795 66.5953 212.653 66.6337 212.528 66.7066C212.403 66.7795 212.299 66.8844 212.227 67.0107L208.473 73.5827L204.008 81.401H212.62L211.767 82.8949H229.63L225.164 75.0767Z" fill="white"/>
<path d="M223.839 64.9676C225.268 64.9676 226.426 63.7971 226.426 62.3532C226.426 60.9093 225.268 59.7388 223.839 59.7388C222.411 59.7388 221.253 60.9093 221.253 62.3532C221.253 63.7971 222.411 64.9676 223.839 64.9676Z" fill="white"/>
<path d="M293.967 114.912C293.938 113.3 293.875 111.697 293.778 110.101C293.737 109.337 293.688 108.577 293.626 107.817H276.273C275.782 107.817 275.312 108.014 274.966 108.365C274.619 108.715 274.424 109.19 274.423 109.686V141.842C274.422 141.989 274.44 142.135 274.477 142.278C274.574 142.686 274.804 143.049 275.129 143.309C275.455 143.568 275.858 143.71 276.273 143.711H292.27C292.352 143.237 292.43 142.756 292.5 142.278C292.545 141.995 292.59 141.709 292.631 141.426C292.73 140.749 292.825 140.072 292.911 139.395C293.034 138.472 293.145 137.546 293.244 136.615C293.605 133.279 293.838 129.907 293.943 126.499V126.495C293.98 125.211 293.999 123.922 294 122.627V117.642C294 116.728 293.992 115.818 293.967 114.912Z" fill="#E1EDF5"/>
<path d="M293.967 114.912C293.938 113.3 293.875 111.697 293.778 110.102H278.533C278.043 110.102 277.573 110.299 277.226 110.65C276.88 111 276.685 111.475 276.684 111.971V139.557C276.685 140.052 276.88 140.527 277.226 140.878C277.573 141.228 278.043 141.425 278.533 141.426H292.631C292.73 140.749 292.825 140.072 292.911 139.395C293.034 138.472 293.145 137.546 293.244 136.615C293.605 133.279 293.838 129.907 293.943 126.499V126.495C293.98 125.211 293.999 123.922 294 122.627V117.642C294 116.728 293.992 115.818 293.967 114.912Z" fill="white"/>
<path d="M293.846 114.202H283.172C282.682 114.203 282.212 114.4 281.865 114.75C281.518 115.101 281.323 115.576 281.323 116.071V134.035C281.323 134.531 281.518 135.006 281.865 135.356C282.212 135.707 282.682 135.904 283.172 135.905H293.123C293.484 132.569 293.717 129.197 293.822 125.789V125.784C293.859 124.501 293.878 123.211 293.879 121.917V116.931C293.879 116.017 293.871 115.107 293.846 114.202Z" fill="#A8D9FF"/>
<path d="M293.942 126.499C293.84 129.906 293.607 133.278 293.244 136.615C293.145 137.546 293.034 138.472 292.911 139.395H286.573L287.428 137.903H278.813L281.443 133.296L283.276 130.084L287.033 123.512C287.105 123.385 287.208 123.28 287.333 123.207C287.458 123.133 287.6 123.095 287.744 123.095C287.889 123.095 288.031 123.133 288.155 123.207C288.28 123.28 288.384 123.385 288.455 123.512L292.052 129.806L293.942 126.499Z" fill="white"/>
<path d="M262.8 33.5971H188.368V29.4883H259.109C260.366 30.8302 261.597 32.1998 262.8 33.5971Z" fill="#E1EDF5"/>
<path d="M227.904 5.10162C230.937 6.78833 233.894 8.59552 236.774 10.5232V30.6059H227.904V5.10162Z" fill="#E1EDF5"/>
<path d="M236.772 18.656H227.904V22.7643H236.772V18.656Z" fill="#CAD7DF"/>
<path d="M250.444 21.0756V30.606H241.575V13.9009C243.642 15.4256 245.663 17.0112 247.637 18.6577C248.582 19.4471 249.518 20.253 250.444 21.0756Z" fill="#E1EDF5"/>
<path d="M250.444 21.0756V22.7623H241.575V18.6577H247.637C248.582 19.447 249.518 20.253 250.444 21.0756Z" fill="#CAD7DF"/>
<path d="M218.849 0.523405C221.196 1.59108 223.503 2.7294 225.771 3.93837L223.946 7.66076L217.883 20.0452L216.079 23.7261L213.255 29.4883L212.635 30.7554L210.107 29.4883L204.69 26.7754L208.13 19.7461H208.134L209.934 16.0652L216.001 3.68079L217.785 0.0414861L217.805 -6.10352e-05L218.849 0.523405Z" fill="#E1EDF5"/>
<path d="M225.75 3.97582L223.946 7.66082L216.001 3.68085L217.785 0.0415446L217.805 0L218.849 0.523462L225.75 3.97582Z" fill="#CAD7DF"/>
<path d="M209.935 16.0665L208.131 19.7483L216.079 23.7253L217.882 20.0435L209.935 16.0665Z" fill="#CAD7DF"/>
<path d="M292.5 142.278C292.43 142.756 292.352 143.238 292.27 143.711C292.126 144.608 291.969 145.498 291.801 146.387H188.368V142.278H292.5Z" fill="#E1EDF5"/>
<path d="M236.772 107.918H227.904V143.399H236.772V107.918Z" fill="#E1EDF5"/>
<path d="M236.772 113.52H227.904V117.629H236.772V113.52Z" fill="#CAD7DF"/>
<path d="M236.772 131.448H227.904V135.556H236.772V131.448Z" fill="#CAD7DF"/>
<path d="M250.444 107.918H241.576V143.399H250.444V107.918Z" fill="#E1EDF5"/>
<path d="M250.444 113.52H241.576V117.629H250.444V113.52Z" fill="#CAD7DF"/>
<path d="M250.444 131.448H241.576V135.556H250.444V131.448Z" fill="#CAD7DF"/>
<path d="M220.263 107.772L204.688 139.569L212.636 143.546L228.21 111.749L220.263 107.772Z" fill="#E1EDF5"/>
<path d="M217.804 112.792L216 116.474L223.948 120.451L225.751 116.769L217.804 112.792Z" fill="#CAD7DF"/>
<path d="M209.934 128.858L208.131 132.54L216.078 136.517L217.882 132.835L209.934 128.858Z" fill="#CAD7DF"/>
<path d="M120.346 158.111C120.716 158.327 121.069 158.572 121.402 158.843L157.994 147.333L160.058 138.157L174.166 139.494L172.075 156.098C171.906 157.439 171.311 158.689 170.38 159.66C169.448 160.63 168.231 161.269 166.909 161.481L123.846 168.372C123.217 169.911 122.14 171.221 120.758 172.126C119.376 173.031 117.753 173.49 116.107 173.441C114.46 173.391 112.867 172.836 111.541 171.85C110.214 170.863 109.215 169.492 108.678 167.918C108.141 166.343 108.091 164.641 108.535 163.038C108.978 161.434 109.894 160.005 111.161 158.941C112.427 157.876 113.984 157.227 115.625 157.079C117.266 156.93 118.912 157.291 120.346 158.111Z" fill="#FFB8B8"/>
<path d="M180.686 144.999L180.444 140.811V140.807L180.378 139.66L179.663 127.33C179.877 124.759 179.074 122.208 177.431 120.234C175.788 118.26 173.438 117.025 170.896 116.798C170.164 116.732 169.428 116.752 168.701 116.857C166.542 117.165 164.548 118.202 163.045 119.799C161.542 121.397 160.616 123.46 160.419 125.656L158.935 131.896L156.342 142.81C156.158 143.573 156.234 144.377 156.558 145.092C156.881 145.806 157.434 146.39 158.126 146.748C158.525 146.96 158.962 147.09 159.412 147.13L163.736 147.521L167.9 147.895L172.704 148.327L173.05 148.356L173.937 148.439L176.909 148.705H176.917C177.414 148.745 177.913 148.679 178.382 148.51C178.851 148.341 179.279 148.073 179.638 147.724C179.9 147.467 180.12 147.169 180.292 146.843C180.591 146.278 180.728 145.639 180.686 144.999V144.999Z" fill="#3D88C1"/>
<path d="M220.841 94.2198C220.841 108.439 207.834 106.288 191.788 106.288C175.743 106.288 162.735 108.439 162.735 94.2198C162.735 80.0011 169.089 54.7972 191.788 54.7972C215.269 54.7972 220.841 80.0011 220.841 94.2198Z" fill="#2F2E41"/>
<path d="M205.515 100.477C213.149 92.7598 213.149 80.2482 205.515 72.5313C197.88 64.8144 185.502 64.8144 177.867 72.5313C170.233 80.2482 170.233 92.7598 177.867 100.477C185.502 108.194 197.88 108.194 205.515 100.477Z" fill="#F6BCAA"/>
<path d="M219.211 114.572C218.835 114.205 218.435 113.864 218.015 113.55C215.357 111.52 212.017 110.626 208.714 111.061L172.688 115.668C169.388 116.082 166.377 117.779 164.294 120.399C162.211 123.019 161.219 126.356 161.529 129.702C161.632 130.865 161.747 132.091 161.874 133.366C162.039 134.966 162.223 136.644 162.437 138.381C162.791 141.301 163.222 144.384 163.736 147.521C164.184 150.221 164.694 152.959 165.277 155.663C165.446 156.444 165.621 157.223 165.803 157.998C165.803 158 165.803 158.003 165.804 158.005C165.805 158.007 165.806 158.009 165.808 158.011C165.828 158.106 165.848 158.202 165.873 158.293C165.872 158.3 165.874 158.308 165.877 158.314C166.132 159.394 166.399 160.462 166.679 161.517C166.786 161.907 166.888 162.294 166.995 162.676C167.283 163.715 167.587 164.733 167.9 165.734C170.246 173.183 173.35 179.527 177.448 182.9C177.501 182.95 177.554 182.991 177.612 183.037L177.776 183.166L178.015 183.091L179.026 182.788L179.889 182.522L191.135 179.103L193.933 178.251L202.927 175.513H202.931L211.155 173.012L212.158 172.705L219.224 170.557L219.45 167.89L219.754 164.35L219.935 162.223L221.365 145.448L222.199 135.66L223.104 125.032C223.272 123.105 223.009 121.165 222.335 119.354C221.661 117.544 220.594 115.909 219.211 114.572Z" fill="#33323A"/>
<path d="M239.355 195.746C239.261 195.468 239.17 195.189 239.076 194.915C234.85 182.452 228.619 173.025 219.45 167.89C219.446 167.89 219.445 167.886 219.441 167.886L219.285 167.799L211.295 170.595L210.309 170.94L209.281 171.301L209.269 171.305L201.788 173.922L201.776 173.927L195.906 175.979H195.902L190.473 177.878H190.469L189.207 178.322L179.716 181.641L178.615 182.028L177.628 182.373L177.476 182.427L177.448 182.9L176.769 194.915L176.724 195.746L175.877 210.739L147.76 251H166.995C173.441 251.002 179.877 250.506 186.247 249.517L204.295 229.858C204.446 229.7 204.638 229.586 204.848 229.53C205.058 229.473 205.28 229.476 205.489 229.538C205.698 229.599 205.887 229.717 206.034 229.879C206.181 230.041 206.282 230.241 206.326 230.456L208.977 243.751C222.037 239.083 234.255 232.288 245.146 223.635C243.88 213.311 242.031 203.901 239.355 195.746Z" fill="#33323A"/>
<path d="M169.103 84.5655H176.835L180.247 74.9109L180.929 84.5655H184.625L186.614 78.9337L187.012 84.5655H214.473C214.473 81.8184 213.938 79.0983 212.898 76.5604C211.858 74.0225 210.334 71.7165 208.412 69.7741C206.49 67.8317 204.209 66.2909 201.698 65.2396C199.187 64.1884 196.496 63.6473 193.778 63.6473H189.798C184.31 63.6473 179.046 65.8512 175.165 69.7741C171.284 73.697 169.103 79.0176 169.103 84.5655Z" fill="#2F2E41"/>
<path d="M121.542 189.259C120.28 189.796 118.916 190.045 117.548 189.991C116.18 189.937 114.84 189.581 113.623 188.947C112.406 188.312 111.341 187.416 110.504 186.321C109.666 185.226 109.076 183.959 108.776 182.609L75.7031 178.823L86.7895 165.404L116.496 171.056C118.774 170.697 121.103 171.194 123.043 172.454C124.982 173.714 126.396 175.649 127.018 177.893C127.64 180.136 127.426 182.533 126.417 184.628C125.408 186.723 123.673 188.371 121.542 189.259L121.542 189.259Z" fill="#A0616A"/>
<path d="M103.711 164.421L89.7321 161.895L88.717 161.712C87.9058 161.566 87.1344 161.248 86.4535 160.778C85.7726 160.309 85.1976 159.7 84.7663 158.99C84.3351 158.28 84.0572 157.486 83.9511 156.66C83.845 155.834 83.913 154.995 84.1507 154.197L91.0146 131.144L91.2201 130.458C92.0771 127.528 91.9245 124.391 90.7873 121.56C89.65 118.729 87.5956 116.372 84.9603 114.875C83.1764 113.874 81.1881 113.302 79.15 113.204C77.1119 113.106 75.0789 113.485 73.2091 114.31C71.3393 115.136 69.6831 116.386 68.3693 117.964C67.0555 119.542 66.1195 121.405 65.6341 123.408L56.8795 159.523L56.5548 160.861C55.9434 163.381 55.8767 166.004 56.3593 168.553C56.842 171.101 57.8626 173.514 59.3517 175.628C60.8407 177.741 62.7632 179.505 64.9879 180.8C67.2127 182.094 69.6874 182.889 72.2434 183.129C72.2721 183.133 72.2968 183.133 72.3257 183.137L77.5662 183.606L84.3642 184.217L92.9135 184.986L100.891 185.704C101.936 185.8 102.979 185.495 103.812 184.85C104.645 184.206 105.207 183.268 105.388 182.223C105.4 182.165 105.408 182.107 105.417 182.049L107.11 169.269L107.127 169.153C107.273 168.071 106.999 166.974 106.362 166.092C105.725 165.21 104.775 164.611 103.711 164.421Z" fill="#CAD7DF"/>
<path d="M82.1739 67.5936C76.5935 78.6831 72.1956 90.1208 59.8867 90.1208C53.9758 90.1208 48.307 87.7474 44.1274 83.5228C39.9477 79.2981 37.5996 73.5682 37.5996 67.5936C37.5996 55.1522 47.5788 45.2222 59.8867 45.0664C72.396 44.9081 92.5603 46.9528 82.1739 67.5936Z" fill="#2F2E41"/>
<path d="M96.1727 212.667L95.6669 207.565L95.2888 207.586L28.8312 210.822L29.0038 215.986L29.2958 224.831C39.5791 232.749 50.9988 239.032 63.1595 243.464L63.5912 240.082C63.6289 239.807 63.7597 239.553 63.9614 239.363C64.1631 239.174 64.4233 239.061 64.698 239.044C64.9727 239.026 65.2449 239.105 65.4687 239.267C65.6924 239.429 65.8538 239.664 65.9257 239.933L67.2368 244.872C77.8302 248.325 88.8311 250.339 99.9499 250.859L96.1727 212.667Z" fill="#33323A"/>
<path d="M74.8075 84.7718C82.4421 77.0548 82.4421 64.5432 74.8075 56.8263C67.1728 49.1094 54.7945 49.1094 47.1599 56.8263C39.5252 64.5432 39.5252 77.0548 47.1599 84.7718C54.7945 92.4887 67.1728 92.4887 74.8075 84.7718Z" fill="#F6C1AA"/>
<path d="M99.991 207.91L96.115 195.746L96.0492 195.538L95.8519 194.915L94.7463 191.45C94.3886 190.324 94.0475 189.194 93.731 188.06C93.4392 187.038 93.1665 186.013 92.9131 184.986C92.5515 183.556 92.2227 182.122 91.9267 180.682C90.9237 175.842 90.2548 170.937 89.925 166.004C89.8345 164.637 89.7701 163.267 89.7318 161.895C89.491 153.483 90.2403 145.072 91.9637 136.84C93.464 129.72 92.6626 122.302 89.6777 115.677C86.6927 109.053 81.6818 103.573 75.3832 100.043C71.2501 97.7346 66.6756 96.3477 61.9675 95.9762C61.6428 95.9513 61.3181 95.9305 60.9894 95.9098C56.0161 95.5921 51.0357 96.4075 46.4159 98.2958C41.7961 100.184 37.6548 103.097 34.2978 106.819C32.4998 108.799 30.9381 110.985 29.645 113.334C26.057 119.868 24.71 127.419 25.8143 134.808L30.4341 166.162L29.3821 179.36L28.1408 194.915L28.075 195.746L26.7514 212.33C26.6887 213.103 26.8739 213.876 27.2795 214.535C27.6852 215.193 28.2897 215.702 29.0038 215.986C29.422 216.155 29.8686 216.242 30.3191 216.24C30.3849 216.24 30.4465 216.24 30.5124 216.235L96.1726 212.667L96.7727 212.634C97.3204 212.605 97.8542 212.449 98.3329 212.179C98.8116 211.908 99.2223 211.53 99.5334 211.073C99.8444 210.617 100.047 210.094 100.127 209.545C100.206 208.997 100.16 208.437 99.991 207.91L99.991 207.91Z" fill="#FE9B47"/>
<path d="M81.729 59.6316C77.2616 62.7438 71.9591 64.4002 66.5334 64.3783C68.4688 65.7347 70.6722 66.6509 72.9916 67.0638C65.7778 68.6279 58.3221 68.6703 51.0914 67.1882C49.4841 66.9277 47.9332 66.3893 46.5067 65.5966C45.1184 64.7448 43.9569 63.3883 43.6769 61.7713C43.1964 58.9968 45.3353 56.4761 47.5581 54.7773C50.9613 52.216 54.8852 50.4514 59.0459 49.611C63.2066 48.7706 67.5001 48.8755 71.6158 49.9181C74.3032 50.6203 76.9954 51.8066 78.7409 53.9881C80.4865 56.1695 81.0035 59.5326 79.3405 61.7789L81.729 59.6316Z" fill="#2F2E41"/>
<path d="M82.7287 185.149C81.4781 185.712 80.1205 185.992 78.7514 185.968C77.3824 185.944 76.0352 185.617 74.8048 185.009C73.5743 184.402 72.4906 183.529 71.6299 182.453C70.7693 181.376 70.1526 180.122 69.8233 178.779L36.6771 175.718L47.4735 162.059L77.2944 167.06C79.5639 166.651 81.9032 167.097 83.869 168.314C85.8348 169.531 87.2905 171.435 87.9604 173.665C88.6302 175.894 88.4676 178.295 87.5034 180.412C86.5392 182.528 84.8403 184.214 82.7287 185.149L82.7287 185.149Z" fill="#F6C1AA"/>
<path d="M64.3722 160.707L56.8793 159.523L49.3206 158.327C48.5066 158.198 47.7286 157.897 47.0379 157.443C46.3472 156.989 45.7593 156.392 45.3129 155.692C44.8665 154.992 44.5717 154.205 44.4477 153.381C44.3238 152.558 44.3736 151.718 44.5939 150.915L51.1538 127.027C51.9476 124.079 51.7276 120.945 50.5299 118.14C49.3323 115.335 47.2278 113.024 44.561 111.585C42.7596 110.613 40.759 110.079 38.7178 110.025C36.6767 109.971 34.6512 110.398 32.8019 111.273C30.9468 112.134 29.3149 113.419 28.0346 115.026C26.7543 116.633 25.8606 118.518 25.424 120.533L17.1502 158.177C16.5929 160.716 16.5848 163.347 17.1266 165.89C17.6684 168.433 18.7472 170.827 20.2893 172.909C21.8314 174.991 23.8004 176.712 26.0614 177.954C28.3225 179.196 30.8222 179.929 33.3897 180.104L62.0089 182.044C63.0553 182.117 64.0905 181.789 64.9094 181.127C65.7284 180.464 66.2715 179.515 66.4313 178.467C66.4437 178.409 66.4477 178.351 66.456 178.293L67.8741 165.481L67.8863 165.364C68.0085 164.28 67.711 163.189 67.0561 162.321C66.4011 161.453 65.4394 160.875 64.3722 160.707Z" fill="#F58220"/>
<path d="M191.162 140.849L189.447 141.794L168.316 153.448L166.6 154.394C165.768 154.854 165.151 155.629 164.883 156.549C164.615 157.469 164.72 158.459 165.173 159.301L180.909 188.452C181.364 189.293 182.131 189.918 183.041 190.188C183.952 190.459 184.931 190.353 185.764 189.895L185.768 189.892L210.321 176.352L210.325 176.349C211.158 175.889 211.775 175.114 212.043 174.194C212.31 173.274 212.206 172.284 211.753 171.442L196.017 142.291C195.561 141.45 194.795 140.826 193.884 140.555C192.974 140.285 191.995 140.39 191.162 140.849Z" fill="#E1EDF5"/>
<path d="M191.655 141.762L189.624 142.883L169.125 154.188L167.094 155.308C166.501 155.636 166.061 156.188 165.871 156.843C165.68 157.498 165.754 158.203 166.077 158.803L181.813 187.954C182.137 188.553 182.684 188.997 183.332 189.19C183.98 189.382 184.677 189.307 185.27 188.981L185.275 188.978L209.828 175.438L209.832 175.435C210.425 175.107 210.864 174.555 211.055 173.9C211.246 173.245 211.171 172.54 210.848 171.941L195.112 142.79C194.788 142.191 194.242 141.746 193.594 141.554C192.946 141.361 192.249 141.436 191.655 141.762Z" fill="white"/>
<path d="M192.232 149.993C192.156 149.853 192.028 149.749 191.876 149.704C191.724 149.659 191.561 149.676 191.422 149.752L190.604 150.204L182.265 154.803C182.127 154.88 182.024 155.01 181.98 155.163C181.936 155.316 181.954 155.48 182.029 155.62C182.105 155.76 182.232 155.864 182.383 155.91C182.534 155.955 182.697 155.938 182.836 155.863L191.993 150.811C192.132 150.734 192.234 150.605 192.279 150.451C192.324 150.298 192.307 150.133 192.232 149.993Z" fill="#E1EDF5"/>
<path d="M195.351 150.587C195.314 150.517 195.264 150.456 195.203 150.407C195.142 150.357 195.072 150.32 194.998 150.298C194.923 150.276 194.844 150.27 194.767 150.278C194.689 150.287 194.614 150.312 194.546 150.35L183.23 156.59C183.162 156.628 183.101 156.679 183.052 156.741C183.003 156.802 182.967 156.873 182.945 156.949C182.923 157.025 182.916 157.104 182.924 157.183C182.933 157.261 182.957 157.337 182.994 157.406C183.032 157.476 183.082 157.537 183.143 157.586C183.204 157.636 183.274 157.673 183.349 157.695C183.424 157.717 183.503 157.724 183.58 157.716C183.658 157.707 183.733 157.683 183.802 157.645L184.328 157.354L187.62 155.539H187.624L195.113 151.405C195.182 151.368 195.244 151.317 195.293 151.255C195.343 151.194 195.38 151.123 195.402 151.047C195.424 150.97 195.431 150.89 195.423 150.812C195.414 150.733 195.39 150.656 195.351 150.587Z" fill="#E1EDF5"/>
<path d="M183.054 160.533L179.461 153.873C179.424 153.806 179.362 153.757 179.289 153.736C179.216 153.715 179.138 153.724 179.071 153.761L177.328 154.721L176.424 155.219L171.57 157.895L170.629 158.414C170.563 158.452 170.514 158.514 170.493 158.588C170.472 158.662 170.481 158.741 170.518 158.809L170.748 159.236L174.11 165.468C174.147 165.535 174.208 165.584 174.28 165.605C174.353 165.626 174.43 165.617 174.496 165.58L180.292 162.386L181.196 161.887L182.939 160.927C182.972 160.909 183.001 160.885 183.025 160.855C183.049 160.825 183.067 160.791 183.078 160.754C183.088 160.718 183.092 160.679 183.088 160.641C183.084 160.603 183.072 160.566 183.054 160.533Z" fill="#E1EDF5"/>
<path d="M196.774 158.443C196.698 158.303 196.571 158.199 196.42 158.154C196.269 158.109 196.106 158.126 195.968 158.202L183.547 165.052C183.437 165.113 183.349 165.207 183.295 165.321C183.242 165.435 183.225 165.564 183.247 165.688C183.256 165.752 183.277 165.815 183.309 165.871C183.34 165.928 183.38 165.98 183.428 166.025L183.432 166.029C183.524 166.112 183.639 166.165 183.762 166.18C183.885 166.195 184.009 166.171 184.118 166.112L196.539 159.261C196.608 159.223 196.669 159.172 196.718 159.11C196.766 159.048 196.803 158.977 196.825 158.901C196.846 158.825 196.853 158.745 196.844 158.667C196.836 158.588 196.812 158.512 196.774 158.443Z" fill="#E1EDF5"/>
<path d="M199.897 159.037C199.859 158.968 199.809 158.907 199.747 158.857C199.686 158.808 199.616 158.771 199.541 158.749C199.466 158.727 199.387 158.72 199.309 158.729C199.231 158.738 199.156 158.762 199.087 158.8L184.509 166.839C184.399 166.898 184.311 166.99 184.257 167.103C184.203 167.216 184.186 167.343 184.209 167.466V167.471C184.217 167.535 184.238 167.597 184.27 167.653C184.302 167.713 184.344 167.766 184.394 167.811C184.485 167.897 184.6 167.951 184.723 167.966C184.847 167.981 184.971 167.956 185.08 167.894L199.659 159.855C199.797 159.779 199.9 159.649 199.945 159.496C199.99 159.343 199.972 159.178 199.897 159.037Z" fill="#E1EDF5"/>
<path d="M179.387 171.721C180.783 171.721 181.915 170.577 181.915 169.166C181.915 167.755 180.783 166.611 179.387 166.611C177.991 166.611 176.859 167.755 176.859 169.166C176.859 170.577 177.991 171.721 179.387 171.721Z" fill="#E1EDF5"/>
<path d="M198.56 129.631L196.845 130.577L175.714 142.231L173.999 143.177C173.167 143.637 172.549 144.412 172.281 145.332C172.014 146.252 172.118 147.242 172.572 148.084L188.307 177.235C188.763 178.076 189.53 178.701 190.44 178.971C191.35 179.242 192.329 179.136 193.162 178.678L193.167 178.675L217.719 165.135L217.724 165.132C218.556 164.672 219.174 163.897 219.441 162.977C219.709 162.057 219.604 161.067 219.151 160.225L203.415 131.074C202.96 130.233 202.193 129.609 201.283 129.338C200.373 129.068 199.394 129.173 198.56 129.631Z" fill="#CAD7DF"/>
<path d="M199.054 130.545L197.022 131.666L176.524 142.971L174.492 144.091C173.899 144.419 173.46 144.971 173.269 145.626C173.079 146.281 173.153 146.986 173.476 147.586L189.212 176.736C189.536 177.335 190.082 177.78 190.73 177.973C191.378 178.165 192.075 178.09 192.669 177.764L192.673 177.761L217.226 164.221L217.23 164.218C217.823 163.89 218.263 163.338 218.453 162.683C218.644 162.028 218.57 161.323 218.247 160.724L202.511 131.573C202.187 130.974 201.641 130.529 200.992 130.336C200.344 130.144 199.647 130.219 199.054 130.545Z" fill="white"/>
<path d="M199.63 138.776C199.554 138.636 199.426 138.532 199.274 138.487C199.123 138.442 198.96 138.459 198.821 138.535L194.604 140.861L193.428 141.509L189.663 143.586C189.525 143.664 189.423 143.793 189.379 143.946C189.335 144.099 189.352 144.263 189.428 144.403C189.503 144.543 189.63 144.647 189.781 144.693C189.933 144.738 190.095 144.721 190.234 144.646L194.673 142.199L195.602 141.684L199.392 139.594C199.53 139.517 199.633 139.388 199.678 139.234C199.722 139.081 199.705 138.916 199.63 138.776Z" fill="#CAD7DF"/>
<path d="M202.75 139.37C202.713 139.3 202.662 139.239 202.601 139.19C202.541 139.14 202.471 139.103 202.396 139.081C202.321 139.059 202.243 139.053 202.165 139.061C202.087 139.07 202.012 139.095 201.944 139.133L196.063 142.378L195.158 142.876L190.629 145.373C190.56 145.411 190.5 145.462 190.451 145.524C190.402 145.585 190.365 145.656 190.343 145.732C190.321 145.807 190.314 145.887 190.323 145.965C190.331 146.044 190.355 146.12 190.392 146.189C190.43 146.259 190.481 146.32 190.542 146.369C190.602 146.419 190.672 146.456 190.747 146.478C190.822 146.5 190.901 146.507 190.979 146.498C191.056 146.49 191.132 146.466 191.2 146.428L195.73 143.931L196.634 143.433L202.511 140.188C202.581 140.151 202.642 140.1 202.692 140.038C202.741 139.977 202.778 139.906 202.8 139.829C202.823 139.753 202.83 139.673 202.821 139.594C202.812 139.515 202.788 139.439 202.75 139.37Z" fill="#CAD7DF"/>
<path d="M190.452 149.316L187.587 144.006L187.094 143.092L186.86 142.656C186.822 142.589 186.76 142.54 186.687 142.519C186.614 142.498 186.536 142.507 186.469 142.544L180.654 145.751L178.027 147.197C177.961 147.235 177.912 147.297 177.891 147.371C177.871 147.445 177.879 147.524 177.916 147.591L178.15 148.024L178.405 148.501L178.644 148.938V148.942L181.508 154.251C181.545 154.318 181.606 154.367 181.679 154.388C181.751 154.409 181.829 154.4 181.895 154.363L190.337 149.71C190.37 149.692 190.4 149.668 190.424 149.638C190.447 149.608 190.465 149.574 190.476 149.537C190.487 149.501 190.49 149.462 190.486 149.424C190.482 149.386 190.47 149.349 190.452 149.316Z" fill="#F58220"/>
<path d="M204.172 147.226C204.097 147.086 203.969 146.982 203.818 146.937C203.667 146.892 203.505 146.909 203.366 146.985L199.655 149.033L198.751 149.531L195.167 151.505L190.945 153.835C190.877 153.873 190.816 153.925 190.767 153.986C190.717 154.048 190.681 154.119 190.659 154.195C190.636 154.271 190.629 154.35 190.638 154.429C190.646 154.508 190.67 154.584 190.707 154.654C190.745 154.723 190.795 154.785 190.856 154.835C190.917 154.884 190.987 154.921 191.063 154.944C191.138 154.966 191.217 154.973 191.295 154.965C191.372 154.957 191.448 154.933 191.517 154.895L199.322 150.591L200.226 150.092L203.938 148.044C204.006 148.006 204.067 147.955 204.116 147.893C204.165 147.831 204.201 147.76 204.223 147.684C204.245 147.608 204.252 147.528 204.243 147.45C204.234 147.371 204.21 147.295 204.172 147.226Z" fill="#CAD7DF"/>
<path d="M207.296 147.82C207.258 147.751 207.207 147.689 207.146 147.64C207.085 147.591 207.015 147.554 206.939 147.532C206.864 147.51 206.785 147.503 206.708 147.512C206.63 147.521 206.554 147.545 206.486 147.583L200.621 150.819L199.717 151.318L191.907 155.622C191.838 155.66 191.777 155.711 191.728 155.772C191.679 155.834 191.642 155.905 191.62 155.981C191.598 156.057 191.59 156.136 191.599 156.215C191.607 156.294 191.631 156.37 191.668 156.44C191.706 156.509 191.757 156.57 191.818 156.62C191.879 156.67 191.949 156.706 192.025 156.729C192.1 156.751 192.179 156.757 192.257 156.749C192.334 156.74 192.41 156.716 192.478 156.677L200.284 152.373L201.188 151.875L207.057 148.638C207.196 148.561 207.299 148.432 207.344 148.279C207.388 148.125 207.371 147.96 207.296 147.82Z" fill="#CAD7DF"/>
<path d="M186.785 160.504C188.181 160.504 189.313 159.36 189.313 157.949C189.313 156.538 188.181 155.394 186.785 155.394C185.389 155.394 184.257 156.538 184.257 157.949C184.257 159.36 185.389 160.504 186.785 160.504Z" fill="#CAD7DF"/>
<path d="M188.483 172.314C188.909 172.356 189.33 172.432 189.744 172.542L218.413 146.836L216.559 137.614L229.962 132.967L234.814 148.97C235.206 150.263 235.172 151.649 234.718 152.921C234.264 154.193 233.414 155.282 232.296 156.024L195.849 180.211C195.903 181.875 195.454 183.516 194.563 184.916C193.671 186.316 192.379 187.409 190.858 188.048C189.337 188.688 187.66 188.845 186.049 188.497C184.438 188.15 182.97 187.315 181.84 186.103C180.71 184.892 179.971 183.361 179.723 181.715C179.475 180.069 179.728 178.386 180.449 176.889C181.17 175.392 182.325 174.152 183.76 173.335C185.196 172.518 186.843 172.162 188.483 172.314Z" fill="#F6BCAA"/>
<path d="M238.147 135.269L230.025 119.59C229.189 117.206 227.469 115.243 225.228 114.116C222.987 112.988 220.401 112.786 218.015 113.55C217.924 113.575 217.838 113.604 217.748 113.637C215.33 114.491 213.346 116.28 212.232 118.612C211.117 120.943 210.964 123.626 211.804 126.071L215.064 143.4C215.157 143.896 215.355 144.365 215.645 144.777C215.934 145.189 216.308 145.532 216.741 145.784C217.214 146.064 217.747 146.224 218.294 146.25C218.745 146.278 219.196 146.215 219.622 146.063L221.365 145.448L232.553 141.509L236.211 140.221C236.683 140.055 237.113 139.787 237.474 139.437C237.834 139.087 238.116 138.663 238.299 138.193C238.483 137.723 238.564 137.219 238.538 136.714C238.512 136.21 238.378 135.717 238.147 135.269Z" fill="#3D88C1"/>
<path d="M268.806 195.746H0.411019C0.30201 195.746 0.197465 195.702 0.120384 195.624C0.0433033 195.546 0 195.441 0 195.33C0 195.22 0.0433033 195.115 0.120384 195.037C0.197465 194.959 0.30201 194.915 0.411019 194.915H268.806C268.915 194.915 269.02 194.959 269.097 195.037C269.174 195.115 269.217 195.22 269.217 195.33C269.217 195.441 269.174 195.546 269.097 195.624C269.02 195.702 268.915 195.746 268.806 195.746Z" fill="#3F3D56"/>
<path d="M46.6489 188.06V188.268C46.6504 189.676 47.0562 191.054 47.8171 192.234C48.5781 193.414 49.6615 194.345 50.9359 194.915C51.8501 195.328 52.8405 195.54 53.8418 195.538H120.221V188.06H46.6489Z" fill="#33323A"/>
<path d="M166.568 138.776C165.514 136.578 163.893 134.709 161.874 133.367C160.959 132.754 159.972 132.26 158.935 131.896C157.523 131.397 156.038 131.143 154.542 131.144H90.8336C87.2921 131.148 83.8968 132.572 81.3925 135.103C78.8883 137.634 77.4796 141.066 77.4755 144.646V182.036C77.4744 182.561 77.5046 183.085 77.566 183.606C77.6562 184.386 77.813 185.156 78.0344 185.908C78.2541 186.649 78.5374 187.369 78.8811 188.06C79.9876 190.307 81.6926 192.198 83.8042 193.519C85.9158 194.84 88.3502 195.539 90.8336 195.538H154.542C156.296 195.539 158.033 195.19 159.654 194.512C161.275 193.833 162.748 192.839 163.989 191.585C165.229 190.331 166.213 188.842 166.884 187.204C167.555 185.565 167.9 183.809 167.9 182.036V144.646C167.903 142.612 167.447 140.605 166.568 138.776Z" fill="#1F4A6B"/>
<path d="M126.181 166.665C127.997 166.665 129.469 165.177 129.469 163.341C129.469 161.505 127.997 160.017 126.181 160.017C124.365 160.017 122.893 161.505 122.893 163.341C122.893 165.177 124.365 166.665 126.181 166.665Z" fill="white"/>
</g>
<defs>
<clipPath id="clip0_1952_395">
<rect width="294" height="251" fill="white"/>
</clipPath>
</defs>
</svg>
